HIERARCHY
ROOT RootJoint
{
    OFFSET   0.000000   0.000000   0.000000
    CHANNELS 6 Xposition Yposition Zposition Xrotation Yrotation Zrotation
    JOINT pelvis_lowerback
    {
        OFFSET   0.000000   0.093605   0.000000
        CHANNELS 3 Xrotation Yrotation Zrotation
        JOINT lowerback_torso
        {
            OFFSET   0.000000   0.100000   0.000000
            CHANNELS 3 Xrotation Yrotation Zrotation
            JOINT torso_head
            {
                OFFSET   0.000000   0.282350   0.000000
                CHANNELS 3 Xrotation Yrotation Zrotation
                End Site
                {
                    OFFSET   0.000000   0.192650   0.000000
                }
            }
            JOINT rTorso_Clavicle
            {
                OFFSET  -0.001000   0.157500   0.000000
                CHANNELS 3 Xrotation Yrotation Zrotation
                JOINT rShoulder
                {
                    OFFSET  -0.117647   0.000000   0.000000
                    CHANNELS 3 Xrotation Yrotation Zrotation
                    JOINT rElbow
                    {
                        OFFSET  -0.245000   0.000000   0.000000
                        CHANNELS 3 Xrotation Yrotation Zrotation
                        JOINT rWrist
                        {
                            OFFSET  -0.240000   0.000000   0.000000
                            CHANNELS 3 Xrotation Yrotation Zrotation
                            End Site
                            {
                                OFFSET  -0.116353  -0.002500   0.000000
                            }
                        }
                    }
                }
            }
            JOINT lTorso_Clavicle
            {
                OFFSET   0.001000   0.157500   0.000000
                CHANNELS 3 Xrotation Yrotation Zrotation
                JOINT lShoulder
                {
                    OFFSET   0.117647   0.000000   0.000000
                    CHANNELS 3 Xrotation Yrotation Zrotation
                    JOINT lElbow
                    {
                        OFFSET   0.245000   0.000000   0.000000
                        CHANNELS 3 Xrotation Yrotation Zrotation
                        JOINT lWrist
                        {
                            OFFSET   0.240000   0.000000   0.000000
                            CHANNELS 3 Xrotation Yrotation Zrotation
                            End Site
                            {
                                OFFSET   0.116353  -0.002500   0.000000
                            }
                        }
                    }
                }
            }
        }
    }
    JOINT rHip
    {
        OFFSET  -0.100000  -0.051395   0.000000
        CHANNELS 3 Xrotation Yrotation Zrotation
        JOINT rKnee
        {
            OFFSET   0.000000  -0.410000   0.000000
            CHANNELS 3 Xrotation Yrotation Zrotation
            JOINT rAnkle
            {
                OFFSET   0.000000  -0.390000   0.000000
                CHANNELS 3 Xrotation Yrotation Zrotation
                JOINT rToeJoint
                {
                    OFFSET   0.000000  -0.050000   0.130000
                    CHANNELS 3 Xrotation Yrotation Zrotation
                    End Site
                    {
                        OFFSET  -0.010000   0.002000   0.060000
                    }
                }
            }
        }
    }
    JOINT lHip
    {
        OFFSET   0.100000  -0.051395   0.000000
        CHANNELS 3 Xrotation Yrotation Zrotation
        JOINT lKnee
        {
            OFFSET   0.000000  -0.410000   0.000000
            CHANNELS 3 Xrotation Yrotation Zrotation
            JOINT lAnkle
            {
                OFFSET   0.000000  -0.390000   0.000000
                CHANNELS 3 Xrotation Yrotation Zrotation
                JOINT lToeJoint
                {
                    OFFSET   0.000000  -0.050000   0.130000
                    CHANNELS 3 Xrotation Yrotation Zrotation
                    End Site
                    {
                        OFFSET   0.010000   0.002000   0.060000
                    }
                }
            }
        }
    }
}
MOTION
Frames: 8
Frame Time:   0.008333
 -1.776457   0.906055   5.176699 -49.487616  76.443046  47.179423   9.915375  -3.722093  -1.038262   0.617073  -2.641470  -0.287119   1.401762   2.302159  -0.819675   3.625686 -13.590314   3.871062   1.592480 -13.394579  46.871703   0.020111  52.286045  -0.017520  -0.115789   2.878337 -19.433760  -1.810439   4.255491  -3.253074 -23.245912   9.200208 -43.942580   0.001357 -71.591512  -0.000367  -4.414275  -3.258617  28.795596  -6.540967  -0.689820  -2.904149  24.863038   0.014101  -0.015047  -2.872850  -7.337806   4.594361   0.094918  -0.004082   0.001702   9.722817  -6.685997   3.668195  24.981157  -0.005163   0.008756 -15.341822  -3.871200   0.969119 -14.614963  -0.000008  -0.008374
 -1.772352   0.903752   5.180937 -50.429774  76.457822  47.975232  10.012212  -3.777252  -1.034872   0.654797  -2.690072  -0.293591   1.414480   2.336035  -0.839604   3.684709 -13.734700   4.112772   1.239039 -13.875672  46.590897   0.023928  51.271488  -0.022974  -0.177196   2.886027 -19.390267  -1.788725   4.404987  -3.465400 -23.281923   9.294670 -43.867417  -0.001103 -71.949262  -0.003186  -4.406261  -3.290458  28.651361  -5.871004  -1.097451  -2.494280  24.525867   0.012422  -0.011792  -4.028754  -7.498270   4.190824  -1.533843  -0.002315   0.003660   9.058227  -6.597178   3.960834  27.339078  -0.005556   0.014793 -15.877525  -3.840675   0.630398 -15.700180  -0.001008  -0.010410
 -1.768333   0.901186   5.185260 -51.182973  76.361976  48.513902  10.143117  -3.779195  -1.020377   0.745169  -2.697550  -0.268331   1.448576   2.369410  -0.847350   3.725319 -13.864398   4.344306   0.887291 -14.327781  46.305664   0.026258  50.310249  -0.026367  -0.265260   2.819611 -19.445827  -1.765089   4.571421  -3.674524 -23.316225   9.400211 -43.784830  -0.002847 -72.280106  -0.005129  -4.389920  -3.342876  28.579718  -5.138349  -1.413254  -2.030081  24.283089   0.010690  -0.009207  -5.172799  -7.505913   3.866918  -3.492190  -0.000185   0.003947   8.398947  -6.507934   4.313939  29.832085  -0.006638   0.018269 -16.375901  -3.787698   0.320844 -16.820491  -0.001527  -0.011468
 -1.764651   0.899244   5.189508 -51.719074  76.199439  48.679317  10.322257  -3.747641  -0.900720   0.859737  -2.670977  -0.198341   1.486059   2.401226  -0.849854   3.745983 -13.961611   4.600756   0.542035 -14.737803  46.039872   0.026726  49.403949  -0.027848  -0.363914   2.714246 -19.512300  -1.725375   4.737710  -3.935525 -23.328839   9.519076 -43.725805  -0.003359 -72.576389  -0.005874  -4.384797  -3.372157  28.544323  -4.462762  -1.664145  -1.410154  24.217901   0.008751  -0.007291  -6.740568  -7.445197   3.398409  -2.893840  -0.000056   0.003165   7.796680  -6.446326   4.820776  32.232151  -0.008360   0.018762 -16.771935  -3.713717   0.057411 -17.138013  -0.001288  -0.009795
 -1.761148   0.897601   5.193622 -52.113947  76.019056  48.714582  10.490838  -3.715889  -0.822759   0.983335  -2.638450  -0.134077   1.526371   2.430504  -0.848314   3.768761 -14.052995   4.854988   0.225872 -15.117468  45.809890   0.026420  48.560745  -0.028261  -0.458208   2.614730 -19.542502  -1.675301   4.904486  -4.181083 -23.328779   9.638885 -43.673477  -0.003348 -72.848162  -0.006038  -4.398205  -3.366201  28.507999  -3.816339  -1.878235  -0.807451  24.120905   0.007281  -0.005719  -8.048790  -7.344604   2.973947  -2.360043   0.000021   0.002536   7.231138  -6.406640   5.311166  34.493168  -0.009745   0.018189 -17.083064  -3.638524  -0.171500 -16.790877  -0.000973  -0.007299
 -1.757778   0.896111   5.197579 -52.387205  75.831383  48.652775  10.644544  -3.685196  -0.779115   1.103073  -2.605668  -0.089771   1.565620   2.457589  -0.848652   3.794740 -14.143293   5.094970  -0.065190 -15.473087  45.599961   0.025825  47.774782  -0.028061  -0.547503   2.523104 -19.555010  -1.622220   5.068633  -4.407736 -23.323958   9.755936 -43.622638  -0.003095 -73.099641  -0.005903  -4.420962  -3.341615  28.474102  -3.203718  -2.071708  -0.236682  24.013487   0.006125  -0.004435  -9.210611  -7.237676   2.579512  -1.868530   0.000068   0.001901   6.703494  -6.378588   5.772067  36.608829  -0.010708   0.017121 -17.331606  -3.566892  -0.374139 -16.004701  -0.000748  -0.004830
 -1.754395   0.895440   5.201467 -53.161304  75.628577  48.962899  10.856279  -3.686087  -0.656503   1.259881  -2.596140  -0.015402   1.609147   2.481710  -0.846494   3.819743 -14.227932   5.350997  -0.336598 -15.807597  45.406638   0.024681  47.031467  -0.027281  -0.644593   2.401758 -19.566327  -1.564529   5.209978  -4.668864 -23.307379   9.869355 -43.596537  -0.002612 -73.326407  -0.005593  -4.452411  -3.297857  28.423482  -2.760782  -2.270007   0.424997  24.324409   0.004158  -0.003746  -9.601891  -7.126488   2.414773  -1.438406  -0.000222   0.001512   6.327329  -6.382986   6.330845  38.581887  -0.010372   0.016496 -17.494123  -3.520173  -0.552085 -14.497449  -0.000286  -0.001669
 -1.751304   0.894587   5.205132 -53.831761  75.416849  49.184632  11.178126  -3.652695  -0.576633   1.327631  -2.629570   0.118166   1.690389   2.518831  -0.799775   3.765703 -14.302646   5.655428  -0.904265 -16.324408  44.892309   0.027046  46.285459  -0.029941  -0.726377   2.281525 -19.507682  -1.564098   5.423758  -4.975193 -23.389445  10.096542 -43.498975  -0.002372 -73.366132  -0.004880  -4.406121  -3.399911  28.286212  -2.412416  -2.489359   1.066967  24.809863   0.002108  -0.003475 -10.357602  -7.096932   1.980081  -1.102373   0.000285   0.000874   5.595161  -6.218513   6.885477  41.417871  -0.008521   0.021844 -17.072580  -3.378095  -0.836173 -13.103497   0.001642   0.005057
